<?xml version="1.0" encoding="UTF-8" standalone="no"?>
<svg
   xmlns:dc="http://purl.org/dc/elements/1.1/"
   xmlns:cc="http://creativecommons.org/ns#"
   xmlns:rdf="http://www.w3.org/1999/02/22-rdf-syntax-ns#"
   xmlns:svg="http://www.w3.org/2000/svg"
   xmlns="http://www.w3.org/2000/svg"
   viewBox="0 0 721.08246 269.57062"
   height="269.57062"
   width="721.08246"
   xml:space="preserve"
   id="svg2"
   version="1.1"><metadata
     id="metadata8"><rdf:RDF><cc:Work
         rdf:about=""><dc:format>image/svg+xml</dc:format><dc:type
           rdf:resource="http://purl.org/dc/dcmitype/StillImage" /><dc:title></dc:title></cc:Work></rdf:RDF></metadata><defs
     id="defs6" /><g
     transform="matrix(1.3333333,0,0,-1.3333333,0,269.57062)"
     id="g10"><g
       id="g12"><g
         transform="matrix(1,0,0,-1,0,202.17796)"
         id="g14"><path
           id="path16"
           style="fill:none;stroke:#000000;stroke-width:0.8;stroke-linecap:butt;stroke-linejoin:miter;stroke-miterlimit:4;stroke-dasharray:none;stroke-opacity:1"
           d="M 77.859,0 V 28.312" /></g><g
         transform="matrix(0,1,1,0,0,202.17796)"
         id="g18"><path
           id="path20"
           style="fill:#000000;fill-opacity:1;fill-rule:evenodd;stroke:#000000;stroke-width:0.8;stroke-linecap:butt;stroke-linejoin:miter;stroke-miterlimit:4;stroke-dasharray:none;stroke-opacity:1"
           d="m -20.313,77.859 3.2,-3.199 -11.2,3.199 11.2,3.2 z" /></g><g
         transform="matrix(1,1,1,-1,0,202.17796)"
         id="g22"><path
           id="path24"
           style="fill:#ffffff;fill-opacity:1;fill-rule:evenodd;stroke:#000000;stroke-width:1.13137;stroke-linecap:butt;stroke-linejoin:miter;stroke-miterlimit:4;stroke-dasharray:none;stroke-opacity:1"
           d="m -7.99,54.693 c 0,6.414 -5.201,11.616 -11.615,11.616 -6.415,0 -11.616,-5.202 -11.616,-11.616 0,-6.414 5.201,-11.615 11.616,-11.615 6.416,-0.002 11.617,5.199 11.615,11.615 z" /></g><g
         transform="matrix(1,0,0,-1,0,202.17796)"
         id="g26"><path
           id="path28"
           style="fill:none;stroke:#000000;stroke-width:1.6;stroke-linecap:butt;stroke-linejoin:miter;stroke-miterlimit:4;stroke-dasharray:none;stroke-opacity:1"
           d="m 139.559,118.039 c 0,34.078 -27.625,61.707 -61.704,61.707 -34.082,0 -61.707,-27.629 -61.707,-61.707 0,-34.078 27.625,-61.707 61.707,-61.707 34.079,0 61.704,27.629 61.704,61.707 z" /></g><g
         transform="matrix(1,0,0,-1,0,202.17796)"
         id="g30"><path
           id="path32"
           style="fill:#ff4545;fill-opacity:1;fill-rule:evenodd;stroke:#000000;stroke-width:1.6;stroke-linecap:butt;stroke-linejoin:miter;stroke-miterlimit:4;stroke-dasharray:none;stroke-opacity:1"
           d="m 94.285,54.125 c 0,9.074 -7.355,16.426 -16.426,16.426 -9.074,0 -16.429,-7.352 -16.429,-16.426 0,-9.07 7.355,-16.426 16.429,-16.426 9.071,0 16.426,7.356 16.426,16.426 z" /></g><g
         transform="matrix(1,-1,-1,-1,0,202.17796)"
         id="g34"><path
           id="path36"
           style="fill:#ffffff;fill-opacity:1;fill-rule:evenodd;stroke:#000000;stroke-width:1.13137;stroke-linecap:butt;stroke-linejoin:miter;stroke-miterlimit:4;stroke-dasharray:none;stroke-opacity:1"
           d="m 109.428,-23.514 c 0,6.414 -5.201,11.616 -11.616,11.616 -6.416,0.002 -11.617,-5.2 -11.615,-11.616 -0.002,-6.416 5.199,-11.617 11.615,-11.615 6.415,0 11.616,5.201 11.616,11.615 z" /></g><g
         transform="matrix(0,-1,-1,0,0,202.17796)"
         id="g38"><path
           id="path40"
           style="fill:#ffffff;fill-opacity:1;fill-rule:evenodd;stroke:#000000;stroke-width:1.6;stroke-linecap:butt;stroke-linejoin:miter;stroke-miterlimit:4;stroke-dasharray:none;stroke-opacity:1"
           d="m 133.844,-139.188 c 0,9.075 -7.356,16.43 -16.426,16.43 -9.074,0 -16.43,-7.355 -16.43,-16.43 0,-9.07 7.356,-16.425 16.43,-16.425 9.07,0 16.426,7.355 16.426,16.425 z" /></g><g
         transform="matrix(-1,-1,-1,1,0,202.17796)"
         id="g42"><path
           id="path44"
           style="fill:#ffffff;fill-opacity:1;fill-rule:evenodd;stroke:#000000;stroke-width:1.13137;stroke-linecap:butt;stroke-linejoin:miter;stroke-miterlimit:4;stroke-dasharray:none;stroke-opacity:1"
           d="m 31.221,-140.932 c 0,6.418 -5.2,11.618 -11.616,11.616 -6.416,0.002 -11.617,-5.2 -11.615,-11.616 0,-6.414 5.199,-11.613 11.615,-11.615 6.415,0 11.616,5.201 11.616,11.615 z" /></g><g
         transform="matrix(-1,0,0,1,0,202.17796)"
         id="g46"><path
           id="path48"
           style="fill:#ffffff;fill-opacity:1;fill-rule:evenodd;stroke:#000000;stroke-width:1.6;stroke-linecap:butt;stroke-linejoin:miter;stroke-miterlimit:4;stroke-dasharray:none;stroke-opacity:1"
           d="m -61.781,-178.395 c 0,9.071 -7.352,16.426 -16.426,16.426 -9.07,0 -16.426,-7.355 -16.426,-16.426 0,-9.074 7.356,-16.429 16.426,-16.429 9.074,0 16.426,7.355 16.426,16.429 z" /></g><g
         transform="matrix(-1,1,1,1,0,202.17796)"
         id="g50"><path
           id="path52"
           style="fill:#ffffff;fill-opacity:1;fill-rule:evenodd;stroke:#000000;stroke-width:1.13137;stroke-linecap:butt;stroke-linejoin:miter;stroke-miterlimit:4;stroke-dasharray:none;stroke-opacity:1"
           d="m -86.197,-62.725 c 0.002,6.416 -5.199,11.618 -11.615,11.616 -6.415,0 -11.614,-5.2 -11.616,-11.616 0,-6.414 5.201,-11.615 11.616,-11.615 6.416,0.002 11.615,5.201 11.615,11.615 z" /></g><g
         transform="matrix(0,1,1,0,0,202.17796)"
         id="g54"><path
           id="path56"
           style="fill:#ffffff;fill-opacity:1;fill-rule:evenodd;stroke:#000000;stroke-width:1.6;stroke-linecap:butt;stroke-linejoin:miter;stroke-miterlimit:4;stroke-dasharray:none;stroke-opacity:1"
           d="m -100.988,17.227 c 0,9.074 -7.356,16.425 -16.43,16.425 -9.07,0 -16.426,-7.351 -16.426,-16.425 0,-9.071 7.356,-16.426 16.426,-16.426 9.074,0 16.43,7.355 16.43,16.426 z" /></g><g
         transform="matrix(1,0.998959,0.998959,-1,0,202.17796)"
         id="g58"><path
           id="path60"
           style="fill:#ffffff;fill-opacity:1;fill-rule:evenodd;stroke:#000000;stroke-width:1.13196;stroke-linecap:butt;stroke-linejoin:miter;stroke-miterlimit:4;stroke-dasharray:none;stroke-opacity:1"
           d="m -7.942,54.73 c -10e-4,6.421 -5.204,11.622 -11.623,11.623 -6.418,0 -11.623,-5.203 -11.622,-11.621 0.003,-6.419 5.204,-11.622 11.623,-11.623 6.417,0 11.622,5.203 11.622,11.621 z" /></g><text
         id="text78"
         style="font-variant:normal;font-weight:normal;font-size:20px;font-family:'DejaVu Sans';-inkscape-font-specification:DejaVuSans;writing-mode:lr-tb;fill:#000000;fill-opacity:1;fill-rule:nonzero;stroke:none"
         transform="matrix(1,0,0,-1,71.320453,140.76268)"><tspan
           id="tspan62"
           y="0"
           x="0">1</tspan><tspan
           id="tspan64"
           y="20.30444"
           x="43.911362">2</tspan><tspan
           id="tspan66"
           y="63.28178"
           x="61.542339">3</tspan><tspan
           id="tspan68"
           y="106.41054"
           x="43.716042">4</tspan><tspan
           id="tspan70"
           y="124.12938"
           x="0.62633997">5</tspan><tspan
           id="tspan72"
           y="106.40076"
           x="-42.663521">6</tspan><tspan
           id="tspan74"
           y="63.291538"
           x="-60.421459">7</tspan><tspan
           id="tspan76"
           y="20.14032"
           x="-42.567822">8</tspan></text><g
         transform="matrix(1,0,0,-1,0,202.17796)"
         id="g80"><path
           id="path82"
           style="fill:none;stroke:#000000;stroke-width:1.6;stroke-linecap:butt;stroke-linejoin:miter;stroke-miterlimit:4;stroke-dasharray:none;stroke-opacity:1"
           d="m 331.758,118.039 c 0,34.078 -27.625,61.707 -61.703,61.707 -34.082,0 -61.707,-27.629 -61.707,-61.707 0,-34.078 27.625,-61.707 61.707,-61.707 34.078,0 61.703,27.629 61.703,61.707 z" /></g><g
         transform="matrix(1,0,0,-1,0,202.17796)"
         id="g84"><path
           id="path86"
           style="fill:#ff4545;fill-opacity:1;fill-rule:evenodd;stroke:#000000;stroke-width:1.6;stroke-linecap:butt;stroke-linejoin:miter;stroke-miterlimit:4;stroke-dasharray:none;stroke-opacity:1"
           d="m 286.484,54.125 c 0,9.074 -7.355,16.426 -16.425,16.426 -9.075,0 -16.43,-7.352 -16.43,-16.426 0,-9.07 7.355,-16.426 16.43,-16.426 9.07,0 16.425,7.356 16.425,16.426 z" /></g><g
         transform="matrix(1,-1,-1,-1,0,202.17796)"
         id="g88"><path
           id="path90"
           style="fill:#ffffff;fill-opacity:1;fill-rule:evenodd;stroke:#000000;stroke-width:1.13137;stroke-linecap:butt;stroke-linejoin:miter;stroke-miterlimit:4;stroke-dasharray:none;stroke-opacity:1"
           d="m 205.527,-119.613 c 0,6.414 -5.201,11.615 -11.615,11.615 -6.416,0.002 -11.617,-5.199 -11.615,-11.615 -0.002,-6.416 5.199,-11.617 11.615,-11.616 6.414,0 11.615,5.202 11.615,11.616 z" /></g><g
         transform="matrix(0,-1,-1,0,0,202.17796)"
         id="g92"><path
           id="path94"
           style="fill:#ffffff;fill-opacity:1;fill-rule:evenodd;stroke:#000000;stroke-width:1.6;stroke-linecap:butt;stroke-linejoin:miter;stroke-miterlimit:4;stroke-dasharray:none;stroke-opacity:1"
           d="m 133.844,-331.387 c 0,9.075 -7.356,16.43 -16.426,16.43 -9.074,0 -16.43,-7.355 -16.43,-16.43 0,-9.07 7.356,-16.425 16.43,-16.425 9.07,0 16.426,7.355 16.426,16.425 z" /></g><g
         transform="matrix(-1,-1,-1,1,0,202.17796)"
         id="g96"><path
           id="path98"
           style="fill:#ffffff;fill-opacity:1;fill-rule:evenodd;stroke:#000000;stroke-width:1.13137;stroke-linecap:butt;stroke-linejoin:miter;stroke-miterlimit:4;stroke-dasharray:none;stroke-opacity:1"
           d="m -64.879,-237.031 c 0,6.418 -5.199,11.617 -11.615,11.615 -6.416,0.002 -11.617,-5.199 -11.615,-11.615 0,-6.414 5.199,-11.614 11.615,-11.615 6.414,0 11.615,5.201 11.615,11.615 z" /></g><g
         transform="matrix(-1,0,0,1,0,202.17796)"
         id="g100"><path
           id="path102"
           style="fill:#ffffff;fill-opacity:1;fill-rule:evenodd;stroke:#000000;stroke-width:1.6;stroke-linecap:butt;stroke-linejoin:miter;stroke-miterlimit:4;stroke-dasharray:none;stroke-opacity:1"
           d="m -253.98,-178.395 c 0,9.071 -7.352,16.426 -16.426,16.426 -9.071,0 -16.426,-7.355 -16.426,-16.426 0,-9.074 7.355,-16.429 16.426,-16.429 9.074,0 16.426,7.355 16.426,16.429 z" /></g><g
         transform="matrix(-1,1,1,1,0,202.17796)"
         id="g104"><path
           id="path106"
           style="fill:#ffffff;fill-opacity:1;fill-rule:evenodd;stroke:#000000;stroke-width:1.13137;stroke-linecap:butt;stroke-linejoin:miter;stroke-miterlimit:4;stroke-dasharray:none;stroke-opacity:1"
           d="m -182.297,33.375 c 0.002,6.416 -5.199,11.617 -11.615,11.615 -6.414,0 -11.613,-5.199 -11.615,-11.615 0,-6.414 5.201,-11.615 11.615,-11.615 6.416,0.002 11.615,5.201 11.615,11.615 z" /></g><g
         transform="matrix(0,1,1,0,0,202.17796)"
         id="g108"><path
           id="path110"
           style="fill:#ffffff;fill-opacity:1;fill-rule:evenodd;stroke:#000000;stroke-width:1.6;stroke-linecap:butt;stroke-linejoin:miter;stroke-miterlimit:4;stroke-dasharray:none;stroke-opacity:1"
           d="m -100.988,209.426 c 0,9.074 -7.356,16.429 -16.43,16.429 -9.07,0 -16.426,-7.355 -16.426,-16.429 0,-9.071 7.356,-16.426 16.426,-16.426 9.074,0 16.43,7.355 16.43,16.426 z" /></g><g
         transform="matrix(1,0.998959,0.998959,-1,0,202.17796)"
         id="g112"><path
           id="path114"
           style="fill:#ffffff;fill-opacity:1;fill-rule:evenodd;stroke:#000000;stroke-width:1.13196;stroke-linecap:butt;stroke-linejoin:miter;stroke-miterlimit:4;stroke-dasharray:none;stroke-opacity:1"
           d="m 88.257,150.829 c 0,6.422 -5.203,11.622 -11.623,11.624 -6.417,-0.001 -11.622,-5.204 -11.621,-11.621 0.002,-6.42 5.203,-11.622 11.623,-11.624 6.417,0.001 11.622,5.204 11.621,11.621 z" /></g><text
         id="text132"
         style="font-variant:normal;font-weight:normal;font-size:20px;font-family:'DejaVu Sans';-inkscape-font-specification:DejaVuSans;writing-mode:lr-tb;fill:#000000;fill-opacity:1;fill-rule:nonzero;stroke:none"
         transform="matrix(1,0,0,-1,220.74881,34.352157)"><tspan
           id="tspan116"
           y="0"
           x="0">1</tspan><tspan
           id="tspan118"
           y="-42.98716"
           x="-17.416121">2</tspan><tspan
           id="tspan120"
           y="-86.270157"
           x="0.23732001">3</tspan><tspan
           id="tspan122"
           y="-106.41054"
           x="43.019958">4</tspan><tspan
           id="tspan124"
           y="-86.379578"
           x="86.516243">5</tspan><tspan
           id="tspan126"
           y="-43.128738"
           x="104.20584">6</tspan><tspan
           id="tspan128"
           y="1.9999999e-05"
           x="86.447884">7</tspan><tspan
           id="tspan130"
           y="17.8507"
           x="43.299641">8</tspan></text><g
         transform="matrix(1,0,0,-1,0,202.17796)"
         id="g134"><path
           id="path136"
           style="fill:none;stroke:#000000;stroke-width:1.6;stroke-linecap:butt;stroke-linejoin:miter;stroke-miterlimit:4;stroke-dasharray:none;stroke-opacity:1"
           d="m 523.957,118.039 c 0,34.078 -27.625,61.707 -61.703,61.707 -34.082,0 -61.707,-27.629 -61.707,-61.707 0,-34.078 27.625,-61.707 61.707,-61.707 34.078,0 61.703,27.629 61.703,61.707 z" /></g><g
         transform="matrix(1,0,0,-1,0,202.17796)"
         id="g138"><path
           id="path140"
           style="fill:#ff4545;fill-opacity:1;fill-rule:evenodd;stroke:#000000;stroke-width:1.6;stroke-linecap:butt;stroke-linejoin:miter;stroke-miterlimit:4;stroke-dasharray:none;stroke-opacity:1"
           d="m 478.684,54.125 c 0,9.074 -7.356,16.426 -16.426,16.426 -9.074,0 -16.426,-7.352 -16.426,-16.426 0,-9.07 7.352,-16.426 16.426,-16.426 9.07,0 16.426,7.356 16.426,16.426 z" /></g><g
         transform="matrix(1,-1,-1,-1,0,202.17796)"
         id="g142"><path
           id="path144"
           style="fill:#ffffff;fill-opacity:1;fill-rule:evenodd;stroke:#000000;stroke-width:1.13137;stroke-linecap:butt;stroke-linejoin:miter;stroke-miterlimit:4;stroke-dasharray:none;stroke-opacity:1"
           d="m 301.627,-215.713 c 0,6.414 -5.201,11.615 -11.615,11.615 -6.416,0.002 -11.617,-5.199 -11.616,-11.615 -0.001,-6.416 5.2,-11.617 11.616,-11.615 6.414,0 11.615,5.201 11.615,11.615 z" /></g><g
         transform="matrix(0,-1,-1,0,0,202.17796)"
         id="g146"><path
           id="path148"
           style="fill:#ffffff;fill-opacity:1;fill-rule:evenodd;stroke:#000000;stroke-width:1.6;stroke-linecap:butt;stroke-linejoin:miter;stroke-miterlimit:4;stroke-dasharray:none;stroke-opacity:1"
           d="m 133.844,-523.586 c 0,9.074 -7.356,16.43 -16.426,16.43 -9.074,0 -16.43,-7.356 -16.43,-16.43 0,-9.07 7.356,-16.426 16.43,-16.426 9.07,0 16.426,7.356 16.426,16.426 z" /></g><g
         transform="matrix(-1,-1,-1,1,0,202.17796)"
         id="g150"><path
           id="path152"
           style="fill:#ffffff;fill-opacity:1;fill-rule:evenodd;stroke:#000000;stroke-width:1.13137;stroke-linecap:butt;stroke-linejoin:miter;stroke-miterlimit:4;stroke-dasharray:none;stroke-opacity:1"
           d="m -160.979,-333.131 c 0,6.418 -5.199,11.617 -11.615,11.615 -6.416,0.002 -11.617,-5.199 -11.615,-11.615 0,-6.414 5.199,-11.613 11.615,-11.615 6.414,0 11.615,5.201 11.615,11.615 z" /></g><g
         transform="matrix(-1,0,0,1,0,202.17796)"
         id="g154"><path
           id="path156"
           style="fill:#ffffff;fill-opacity:1;fill-rule:evenodd;stroke:#000000;stroke-width:1.6;stroke-linecap:butt;stroke-linejoin:miter;stroke-miterlimit:4;stroke-dasharray:none;stroke-opacity:1"
           d="m -446.18,-178.395 c 0,9.071 -7.351,16.426 -16.425,16.426 -9.071,0 -16.426,-7.355 -16.426,-16.426 0,-9.074 7.355,-16.429 16.426,-16.429 9.074,0 16.425,7.355 16.425,16.429 z" /></g><g
         transform="matrix(-1,1,1,1,0,202.17796)"
         id="g158"><path
           id="path160"
           style="fill:#ffffff;fill-opacity:1;fill-rule:evenodd;stroke:#000000;stroke-width:1.13137;stroke-linecap:butt;stroke-linejoin:miter;stroke-miterlimit:4;stroke-dasharray:none;stroke-opacity:1"
           d="m -278.396,129.475 c 0.001,6.416 -5.2,11.617 -11.616,11.615 -6.414,0 -11.613,-5.199 -11.615,-11.615 0,-6.414 5.201,-11.616 11.615,-11.616 6.416,0.002 11.616,5.202 11.616,11.616 z" /></g><g
         transform="matrix(0,1,1,0,0,202.17796)"
         id="g162"><path
           id="path164"
           style="fill:#ffffff;fill-opacity:1;fill-rule:evenodd;stroke:#000000;stroke-width:1.6;stroke-linecap:butt;stroke-linejoin:miter;stroke-miterlimit:4;stroke-dasharray:none;stroke-opacity:1"
           d="m -100.988,401.625 c 0,9.074 -7.356,16.43 -16.43,16.43 -9.07,0 -16.426,-7.356 -16.426,-16.43 0,-9.07 7.356,-16.426 16.426,-16.426 9.074,0 16.43,7.356 16.43,16.426 z" /></g><g
         transform="matrix(1,0.998959,0.998959,-1,0,202.17796)"
         id="g166"><path
           id="path168"
           style="fill:#ffffff;fill-opacity:1;fill-rule:evenodd;stroke:#000000;stroke-width:1.13196;stroke-linecap:butt;stroke-linejoin:miter;stroke-miterlimit:4;stroke-dasharray:none;stroke-opacity:1"
           d="m 184.457,246.929 c -0.001,6.421 -5.204,11.622 -11.623,11.623 -6.417,0 -11.622,-5.203 -11.622,-11.621 0.003,-6.419 5.204,-11.622 11.624,-11.623 6.417,0 11.622,5.204 11.621,11.621 z" /></g><text
         id="text186"
         style="font-variant:normal;font-weight:normal;font-size:20px;font-family:'DejaVu Sans';-inkscape-font-specification:DejaVuSans;writing-mode:lr-tb;fill:#000000;fill-opacity:1;fill-rule:nonzero;stroke:none"
         transform="matrix(1,0,0,-1,517.04662,77.471151)"><tspan
           id="tspan170"
           y="0"
           x="0">1</tspan><tspan
           id="tspan172"
           y="43.250839"
           x="-17.416161">2</tspan><tspan
           id="tspan174"
           y="60.969681"
           x="-60.764599">3</tspan><tspan
           id="tspan176"
           y="43.118999"
           x="-103.84946">4</tspan><tspan
           id="tspan178"
           y="-0.1416"
           x="-121.68056">5</tspan><tspan
           id="tspan180"
           y="-43.15118"
           x="-103.96854">6</tspan><tspan
           id="tspan182"
           y="-63.291561"
           x="-61.117519">7</tspan><tspan
           id="tspan184"
           y="-43.128719"
           x="-17.679819">8</tspan></text><g
         transform="matrix(1,0,0,-1,0,202.17796)"
         id="g188"><path
           id="path190"
           style="fill:none;stroke:#000000;stroke-width:0.8;stroke-linecap:butt;stroke-linejoin:miter;stroke-miterlimit:4;stroke-dasharray:none;stroke-opacity:1"
           d="M 270.059,0 V 28.312" /></g><g
         transform="matrix(0,1,1,0,0,202.17796)"
         id="g192"><path
           id="path194"
           style="fill:#000000;fill-opacity:1;fill-rule:evenodd;stroke:#000000;stroke-width:0.8;stroke-linecap:butt;stroke-linejoin:miter;stroke-miterlimit:4;stroke-dasharray:none;stroke-opacity:1"
           d="m -20.313,270.059 3.2,-3.2 -11.2,3.2 11.2,3.199 z" /></g><g
         transform="matrix(1,0,0,-1,0,202.17796)"
         id="g196"><path
           id="path198"
           style="fill:none;stroke:#000000;stroke-width:0.8;stroke-linecap:butt;stroke-linejoin:miter;stroke-miterlimit:4;stroke-dasharray:none;stroke-opacity:1"
           d="M 462.258,0 V 28.312" /></g><g
         transform="matrix(0,1,1,0,0,202.17796)"
         id="g200"><path
           id="path202"
           style="fill:#000000;fill-opacity:1;fill-rule:evenodd;stroke:#000000;stroke-width:0.8;stroke-linecap:butt;stroke-linejoin:miter;stroke-miterlimit:4;stroke-dasharray:none;stroke-opacity:1"
           d="m -20.313,462.258 3.2,-3.199 -11.2,3.199 11.2,3.199 z" /></g><g
         transform="matrix(1,0,0,-1,0,202.17796)"
         id="g204"><path
           id="path206"
           style="fill:none;stroke:#000000;stroke-width:0.8;stroke-linecap:butt;stroke-linejoin:miter;stroke-miterlimit:4;stroke-dasharray:none;stroke-opacity:1"
           d="m 95.508,26.125 c 33.781,0.883 51.25,29.602 51.25,29.602" /></g><g
         transform="matrix(-0.60828,1,1,0.60828,0,202.17796)"
         id="g208"><path
           id="path210"
           style="fill:#000000;fill-opacity:1;fill-rule:evenodd;stroke:#000000;stroke-width:0.683485;stroke-linecap:butt;stroke-linejoin:miter;stroke-miterlimit:4;stroke-dasharray:none;stroke-opacity:1"
           d="m -99.004,82.379 2.737,-2.733 -9.569,2.734 9.567,2.733 z" /></g><g
         transform="matrix(1,0,0,-1,0,202.17796)"
         id="g212"><path
           id="path214"
           style="fill:none;stroke:#000000;stroke-width:0.8;stroke-linecap:butt;stroke-linejoin:miter;stroke-miterlimit:4;stroke-dasharray:none;stroke-opacity:1"
           d="m 287.266,26.125 c 33.781,0.883 51.254,29.602 51.254,29.602" /></g><g
         transform="matrix(-0.60828,1,1,0.60828,0,202.17796)"
         id="g216"><path
           id="path218"
           style="fill:#000000;fill-opacity:1;fill-rule:evenodd;stroke:#000000;stroke-width:0.683485;stroke-linecap:butt;stroke-linejoin:miter;stroke-miterlimit:4;stroke-dasharray:none;stroke-opacity:1"
           d="m -184.144,222.348 2.735,-2.731 -9.569,2.734 9.569,2.731 z" /></g><g
         transform="matrix(1,0,0,-1,0,202.17796)"
         id="g220"><path
           id="path222"
           style="fill:none;stroke:#000000;stroke-width:0.8;stroke-linecap:butt;stroke-linejoin:miter;stroke-miterlimit:4;stroke-dasharray:none;stroke-opacity:1"
           d="m 479.465,26.125 c 33.785,0.883 51.254,29.602 51.254,29.602" /></g><g
         transform="matrix(-0.60828,1,1,0.60828,0,202.17796)"
         id="g224"><path
           id="path226"
           style="fill:#000000;fill-opacity:1;fill-rule:evenodd;stroke:#000000;stroke-width:0.683485;stroke-linecap:butt;stroke-linejoin:miter;stroke-miterlimit:4;stroke-dasharray:none;stroke-opacity:1"
           d="m -269.482,362.642 2.737,-2.734 -9.57,2.734 9.568,2.734 z" /></g></g></g></svg>
